<?xml version="1.0" encoding="UTF-8"?>
<svg viewBox="0 0 512 512" xmlns="http://www.w3.org/2000/svg">
<defs>
<marker id="arrow" viewBox="0 0 7 7" refX="0" refY="3.5" markerWidth="7" markerHeight="7" orient="auto">
<path d="M0 0L7 3.5L0 7z"/>
</marker>
</defs>
<rect width="512" height="512" fill="#fff"/>
<g fill="none" stroke="#000" stroke-width="2" marker-end="url(#arrow)">
<path d="M323 72A196 196 0 0 1 448 215"/>
<path d="M450 287A196 196 0 0 1 371 415"/>
<path d="M149 420A196 196 0 0 1 176 76"/>
</g>
<g fill="#fff" stroke="#000" stroke-width="4">
<rect x="195.5" y="47" width="121" height="46" rx="4" ry="4"/>
<rect x="395" y="233" width="114" height="46" rx="4" ry="4"/>
<rect x="158" y="401" width="196" height="46" rx="4" ry="4"/>
</g>
<g text-anchor="middle" style="font:700 29px Helvetica,sans-serif">
<text x="256" y="70" alignment-baseline="middle">State</text>
<text x="452" y="256" alignment-baseline="middle">DOM</text>
<text x="256" y="424" alignment-baseline="middle">App logic</text>
<g stroke="#fff" stroke-width="8" paint-order="stroke">
<text x="410" y="135" alignment-baseline="middle">render</text>
<text x="431" y="345" alignment-baseline="middle">event</text>
<text x="60" y="256" alignment-baseline="middle">update</text>
</g>
</g>
</svg>